<?xml version="1.0" standalone="no"?>
<!DOCTYPE svg PUBLIC "-//W3C//DTD SVG 20010904//EN"
 "http://www.w3.org/TR/2001/REC-SVG-20010904/DTD/svg10.dtd">
<svg version="1.0" xmlns="http://www.w3.org/2000/svg"
 width="512.000000pt" height="512.000000pt" viewBox="0 0 512.000000 512.000000"
 preserveAspectRatio="xMidYMid meet">
<metadata>
Created by potrace 1.11, written by Peter Selinger 2001-2013
</metadata>
<g transform="translate(0.000000,512.000000) scale(0.100000,-0.100000)"
fill="#000000" stroke="none">
<path d="M0 2560 l0 -2560 2560 0 2560 0 0 2560 0 2560 -2560 0 -2560 0 0
-2560z m1646 1730 c91 -51 172 -171 210 -309 l17 -60 41 23 c81 47 143 61 266
61 86 0 129 -5 170 -19 166 -56 273 -166 302 -310 l10 -53 48 -6 c101 -12 182
-77 234 -186 28 -60 31 -75 31 -163 0 -54 1 -98 2 -98 1 0 24 14 50 30 60 38
161 70 222 70 l47 0 13 51 c34 132 123 244 240 302 61 30 73 32 166 32 89 0
106 -3 157 -28 171 -84 264 -250 256 -458 -3 -96 -2 -100 17 -95 93 26 208 10
295 -41 184 -108 284 -378 219 -589 -55 -179 -149 -287 -296 -341 l-64 -23
-1784 0 c-1775 0 -1785 0 -1839 21 -134 49 -236 206 -236 360 0 151 104 317
227 361 27 10 33 17 30 33 -35 146 -39 175 -33 260 10 165 66 293 171 394 88
85 172 123 281 129 l81 4 7 93 c13 182 52 325 115 422 99 151 214 198 327 133z
m2604 -2440 l0 -40 -1695 0 -1695 0 0 40 0 40 1695 0 1695 0 0 -40z m-360
-275 l0 -35 -1335 0 -1335 0 0 35 0 35 1335 0 1335 0 0 -35z m-370 -260 l0
-35 -960 0 -960 0 0 35 0 35 960 0 960 0 0 -35z"/>
</g>
</svg>
